HIERARCHY
ROOT hip
{
	OFFSET 0.000000 0.000000 0.000000 
	CHANNELS 6 Xposition Yposition Zposition Zrotation Xrotation Yrotation
	JOINT abdomen
	{
		OFFSET 0.000000 3.402643 0.000000 
		CHANNELS 3 Zrotation Xrotation Yrotation
		JOINT chest
		{
			OFFSET 0.000000 8.438565 -0.680529 
			CHANNELS 3 Zrotation Xrotation Yrotation
			JOINT neck
			{
				OFFSET 0.000000 10.207942 -0.272212 
				CHANNELS 3 Zrotation Xrotation Yrotation
				JOINT head
				{
					OFFSET 0.000000 3.130431 0.000000 
					CHANNELS 3 Zrotation Xrotation Yrotation
					End Site
					{
						OFFSET 0.000000 3.130435 0.000000 
					}
				}
			}
			JOINT lCollar
			{
				OFFSET 3.470700 6.669187 -0.816635 
				CHANNELS 3 Zrotation Xrotation Yrotation
				JOINT lShldr
				{
					OFFSET 3.198488 0.000000 0.000000 
					CHANNELS 3 Zrotation Xrotation Yrotation
					JOINT lForeArm
					{
						OFFSET 10.139888 0.000000 0.000000 
						CHANNELS 3 Zrotation Xrotation Yrotation
						JOINT lHand
						{
							OFFSET 8.370511 0.000000 0.000000 
							CHANNELS 3 Zrotation Xrotation Yrotation
							End Site
							{
								OFFSET 4.083176 0.000000 0.000000 
							}
						}
					}
				}
			}
			JOINT rCollar
			{
				OFFSET -3.470700 6.669187 -0.816635 
				CHANNELS 3 Zrotation Xrotation Yrotation
				JOINT rShldr
				{
					OFFSET -3.198488 0.000000 0.000000 
					CHANNELS 3 Zrotation Xrotation Yrotation
					JOINT rForeArm
					{
						OFFSET -10.139888 0.000000 0.000000 
						CHANNELS 3 Zrotation Xrotation Yrotation
						JOINT rHand
						{
							OFFSET -8.370511 0.000000 0.000000 
							CHANNELS 3 Zrotation Xrotation Yrotation
							End Site
							{
								OFFSET -4.083176 0.000000 0.000000 
							}
						}
					}
				}
			}
		}
	}
	JOINT lThigh
	{
		OFFSET 5.308129 -1.633274 1.361059 
		CHANNELS 3 Zrotation Xrotation Yrotation
		JOINT lShin
		{
			OFFSET -2.041588 -20.007561 0.000000 
			CHANNELS 3 Zrotation Xrotation Yrotation
			JOINT lFoot
			{
				OFFSET 0.000000 -19.190928 -1.224953 
				CHANNELS 3 Zrotation Xrotation Yrotation
				End Site
				{
					OFFSET 0.000000 -2.449906 4.627600 
				}
			}
		}
	}
	JOINT rThigh
	{
		OFFSET -5.308129 -1.633274 1.361059 
		CHANNELS 3 Zrotation Xrotation Yrotation
		JOINT rShin
		{
			OFFSET 2.041588 -20.007561 0.000000 
			CHANNELS 3 Zrotation Xrotation Yrotation
			JOINT rFoot
			{
				OFFSET 0.000000 -19.190928 -1.224953 
				CHANNELS 3 Zrotation Xrotation Yrotation
				End Site
				{
					OFFSET 0.000000 -2.449906 4.627600 
				}
			}
		}
	}
}
MOTION
Frames: 18
Frame Time: 0.033333
0.213869 43.447964 -3.998307 -0.000010 -0.000010 -0.000000 -0.225736 17.870968 -0.047951 -0.453427 -7.812257 -0.042180 -0.000000 -0.000003 -0.000000 -0.000000 -9.003907 -0.000000 -5.697276 -0.267218 2.001776 -62.815990 32.926624 -6.869245 1.249032 -37.208939 -11.717908 9.370472 0.118943 -2.702653 5.677635 -0.269442 -2.021281 58.960739 39.036079 6.871095 -1.476850 -37.428001 14.854994 -2.503178 -5.755050 -3.106432 12.852356 -24.411142 0.564784 -4.080530 40.296982 -0.640247 -9.177831 -15.506127 5.395439 -14.365983 -25.891024 -0.044959 3.690639 42.554337 0.503688 10.237166 -13.329192 -2.379020 
0.427740 38.882290 -8.288280 -0.000010 -0.000010 -0.000000 -0.529458 35.750790 0.084738 -0.922723 -15.613312 -0.209303 -0.000000 -0.000003 -0.000000 -0.000000 -18.007811 -0.000000 -5.697276 -0.267218 2.001776 -39.241810 45.670101 -31.639399 25.537500 -72.739441 -1.141726 12.795203 0.302038 -2.025152 5.677635 -0.269442 -2.021281 22.380329 56.093708 39.221169 -14.270869 -74.120781 17.293247 -0.362520 -11.337630 -9.740957 25.840452 -39.426010 7.237079 -7.274224 65.016853 1.077921 -18.174082 -23.956999 7.667313 -29.356640 -41.748955 -7.732880 7.029464 69.539879 -1.106689 19.959682 -18.550623 -1.912910 
0.779995 41.328625 -5.960876 -0.000010 -0.000010 -0.000000 -1.382804 34.279343 0.310188 -1.685693 -19.211042 -0.300912 -0.000000 -0.000003 -0.000000 -0.000000 -18.007811 -0.000000 -5.697276 -0.267218 2.001776 -9.756300 9.539848 -24.630337 24.208441 -63.022072 -4.719411 12.921075 0.289798 -2.129497 5.599375 -0.270496 -2.060436 2.634022 20.523354 25.713398 -14.879077 -70.289055 14.910770 -0.283710 -10.668436 -9.707437 21.365997 -28.933393 4.397512 -4.766284 49.563530 -0.494234 -16.429420 -19.778570 9.486679 -24.723928 -30.073236 -4.919058 4.188281 52.458626 0.629114 18.742620 -13.871960 -3.469419 
1.132252 45.487083 -3.633470 -0.000010 -0.000010 -0.000000 -2.219249 32.802681 0.489490 -2.500202 -22.802759 -0.501144 -0.000000 -0.000003 -0.000000 -0.000000 -18.007811 -0.000000 -5.697276 -0.267218 2.001776 20.519136 -25.830421 -30.337545 25.059174 -53.437099 -6.558219 13.046868 0.277805 -2.233893 5.520763 -0.281203 -2.099590 -23.898214 -15.383570 28.399157 -14.724440 -66.400375 13.330508 -0.206778 -9.992568 -9.678590 18.428747 -18.030653 3.103145 -3.751411 34.068951 -0.516849 -14.957986 -15.480580 10.869010 -22.104641 -17.994684 -3.518320 3.351183 35.316414 0.260080 17.875975 -9.095142 -4.918695 
0.937946 58.468632 -1.111997 -0.000010 -0.000010 -0.000000 -1.638965 16.399899 0.013642 -2.141359 -17.605642 -0.199087 -0.000000 -0.000003 -0.000000 -0.000000 -12.001954 -0.000000 -5.697276 -0.267218 2.001776 21.147768 -50.650017 -64.127113 15.402948 -61.721249 -18.801546 11.560661 -0.111328 -2.743702 5.509927 -0.310128 -2.099632 -22.805031 -50.302845 54.042831 -0.709510 -69.063637 23.282200 -1.387505 -10.361508 -11.070204 11.713127 -15.243364 2.816412 -3.692777 27.271273 -0.396688 -6.590338 13.756430 8.987652 -16.023638 -5.114124 -2.693892 3.132615 20.722685 0.060565 9.219320 20.281162 -3.253074 
0.664057 64.936188 -0.993557 -0.000010 -0.000010 -0.000000 -1.172779 10.710696 -0.123807 -0.502691 -17.841156 0.021763 -0.000000 -0.000003 -0.000000 -0.000000 -9.003907 -0.000000 -5.697276 -0.267218 2.001776 25.440344 -48.951893 -56.953484 -4.081089 -64.999954 -41.839958 11.719832 -0.125972 -2.459732 5.548715 -0.319422 -2.080050 -14.765326 -51.987728 57.747704 33.571194 -67.834976 55.990810 -1.570266 -11.414164 -11.204282 11.646606 -17.458094 2.614880 -4.092465 32.815620 -0.374755 -6.243533 9.883886 6.431382 -14.568113 -12.163375 -3.114460 3.621092 32.415920 0.149248 7.533395 9.927011 -1.733504 
0.390170 66.429207 -0.875116 -0.000010 -0.000010 -0.000000 -0.725449 5.028897 -0.161014 1.129913 -18.063124 0.242965 -0.000000 -0.000003 -0.000000 -0.000000 -6.005859 -0.000000 -5.687486 -0.267844 2.001814 28.957779 -46.545723 -50.438839 -26.430820 -64.418999 -67.391151 11.882412 -0.149323 -2.172257 5.577305 -0.340002 -2.070237 -6.370235 -53.470261 61.800533 56.988396 -60.617619 77.350067 -1.779271 -12.454522 -11.353880 11.600259 -19.673979 2.484958 -4.512101 38.354733 -0.391088 -5.975030 6.046907 3.956512 -13.264053 -19.308664 -3.165375 4.475157 44.094650 0.184594 6.232010 -0.418335 -1.105660 
0.116282 65.291649 -0.756676 -0.000010 -0.000010 -0.000000 -0.292988 -0.654288 -0.110768 2.776815 -18.270964 0.480556 -0.000000 -0.000003 -0.000000 -0.000000 -3.007811 -0.000000 -5.687486 -0.267844 2.001814 31.629028 -43.534012 -44.658497 -45.183464 -60.053017 -89.033440 12.028770 -0.158069 -1.888230 5.616112 -0.349272 -2.050659 2.371488 -54.724766 66.191063 69.963188 -50.778515 87.728912 -1.977479 -13.507886 -11.498812 11.574152 -21.871763 2.301240 -5.140062 43.861771 -0.139626 -5.695206 2.141378 1.583428 -12.076118 -26.527693 -3.106415 5.983613 55.780132 -0.338776 4.917177 -10.780628 -0.802471 
-0.179114 63.247700 -0.894759 -0.000010 -0.000010 -0.000000 0.254265 -3.046846 0.091640 1.675114 -13.197676 0.138688 -0.000000 -0.000003 -0.000000 -0.000000 -1.503905 -0.000000 -5.687486 -0.267844 2.001814 38.626026 -36.702755 -39.123047 -53.100121 -56.746857 -100.063225 12.104482 -0.163268 -1.738560 5.635373 -0.357809 -2.040873 6.856469 -55.256786 68.498009 74.005325 -43.764008 93.064011 -1.231773 -9.864014 -11.387495 11.972335 -25.624786 2.559908 -6.341865 55.913723 0.323182 -5.180352 -6.281746 -0.128591 -12.262937 -30.146658 -3.323454 7.066576 62.621822 -1.020464 4.678382 -16.850983 -0.018215 
-0.474508 59.542114 -1.032841 -0.000010 -0.000010 -0.000000 0.814200 -5.429141 0.340850 0.631306 -8.104984 0.001226 -0.000000 -0.000003 -0.000000 -0.000000 0.000001 -0.000000 -5.687435 -0.268816 2.011532 44.146420 -29.368713 -35.188911 -59.522221 -52.798748 -109.477783 12.191314 -0.171736 -1.604740 5.654578 -0.368267 -2.031098 11.440225 -55.725822 70.888542 76.952248 -36.525768 97.208229 -0.481893 -6.229474 -11.332969 12.440274 -29.374702 2.829041 -9.101212 67.882881 2.350975 -4.783969 -14.801192 -1.757767 -12.521869 -33.804173 -3.558777 8.947187 69.477654 -2.395593 4.507608 -22.982887 0.661078 
0.166080 53.366676 -2.848449 -0.000010 -0.000010 -0.000000 1.857376 2.596295 0.443495 1.184709 -11.208593 0.074265 -0.000000 -0.000003 -0.000000 -0.000000 -5.722657 -0.000000 -5.687435 -0.268816 2.011532 39.820858 -16.681089 -32.479183 -69.291458 -41.230873 -124.223640 11.903413 -0.049052 -2.592769 5.665407 -0.338376 -2.031053 -15.232121 -40.130173 46.034683 78.267334 -35.546497 104.761864 -0.731805 -7.086438 -11.584171 13.245061 -29.158518 2.153556 -7.463134 62.208843 1.183786 -8.176260 -20.873499 2.186473 -13.021939 -35.166924 -1.501210 7.838707 67.140518 -1.745754 8.869403 -23.933596 -1.198990 
0.806668 46.180416 -4.664058 -0.000010 -0.000010 -0.000000 2.960831 10.611136 0.245827 1.763723 -14.309897 0.221510 -0.000000 -0.000003 -0.000000 -0.000000 -11.435546 -0.000000 -5.687435 -0.268816 2.011532 34.716213 -3.871859 -31.858570 -75.090088 -28.391384 -134.627716 11.629493 0.074572 -3.579693 5.676259 -0.308478 -2.021288 -28.194572 -19.260208 37.009663 79.664398 -34.395004 112.317169 -0.998271 -7.935182 -11.846881 14.066599 -28.988951 1.499713 -6.449299 56.553673 0.618527 -11.849456 -27.311567 5.313644 -13.546856 -36.527828 0.104896 6.853531 64.812828 -1.020885 12.830855 -25.167833 -2.950532 
0.830457 39.730839 -5.712952 -0.000010 -0.000010 -0.000000 1.596538 24.298294 -0.266471 0.870797 -12.664596 0.083653 -0.000000 -0.000003 -0.000000 -0.000000 -14.716797 -0.000000 -5.687435 -0.268816 2.011532 18.220192 20.291546 -35.141747 -75.295959 -33.661728 -131.990463 12.743932 0.028998 -3.908217 5.676946 -0.288965 -2.021286 -25.076405 7.437416 36.082924 80.238777 -38.348198 121.505363 -1.054223 -8.722209 -11.614662 16.806160 -35.508316 2.396432 -7.528126 65.690636 1.239337 -14.104447 -29.766613 6.791122 -18.441261 -37.667042 -3.209920 6.926691 67.482170 -1.064582 13.797113 -24.145727 -3.574443 
0.854244 34.859047 -6.761846 -0.000010 -0.000010 -0.000000 -0.000000 37.998032 -0.000000 -0.000000 -11.005860 -0.000000 -0.000000 -0.000003 -0.000000 -0.000000 -18.007811 -0.000000 -5.687435 -0.268816 2.011532 8.372232 41.852879 -47.956272 -75.489876 -39.033325 -129.460403 13.856431 -0.034378 -4.238647 5.677635 -0.269442 -2.021281 -25.547653 32.372940 45.209576 81.162231 -42.172867 130.981018 -1.108484 -9.501719 -11.385008 29.838274 -45.810406 9.894484 -16.123930 82.350670 8.993122 -20.982763 -33.758846 2.642449 -35.732803 -46.886234 -11.281329 17.268158 84.762543 -10.635207 24.039587 -26.500053 4.592436 
0.924112 32.850952 -7.188185 -0.000010 -0.000010 -0.000000 0.410928 42.548077 -0.141157 -0.068794 -6.445307 -0.066327 -0.000000 -0.000003 -0.000000 -0.000000 -18.007811 -0.000000 -5.697276 -0.267218 2.001776 7.691665 55.954174 -61.151104 -5.200062 -77.990631 -30.498383 14.188664 0.671225 -3.960533 5.677635 -0.269442 -2.021281 28.289328 50.170998 26.590521 25.214512 -81.816231 76.951775 -1.391400 -11.963449 -9.079983 32.440746 -49.789108 11.686935 -49.115257 87.609680 41.774822 -22.100626 -34.894176 1.118479 -39.208145 -50.607224 -13.324083 105.241066 88.704117 -98.377007 25.591177 -27.183426 6.368069 
0.976514 31.521776 -7.507940 -0.000010 -0.000010 -0.000000 1.019378 42.466171 -0.375651 0.472616 -7.333731 -0.017715 -0.000000 -0.000003 -0.000000 -0.000000 -18.007811 -0.000000 -5.697276 -0.267218 2.001776 7.691665 55.954174 -61.151104 -5.200062 -77.990631 -30.498383 14.188664 0.671225 -3.960533 5.677635 -0.269442 -2.021281 28.289328 50.170998 26.590521 25.214512 -81.816231 76.951775 -1.391400 -11.963449 -9.079983 34.841850 -52.685081 13.442996 -150.867172 86.768013 143.320602 -22.970358 -35.855137 -0.103238 -42.323025 -53.245697 -15.678811 169.877899 85.603630 -162.858032 26.755400 -27.621794 7.967702 
1.028915 30.192600 -7.827695 -0.000010 -0.000010 -0.000000 1.626209 42.381069 -0.617805 1.026172 -8.221356 0.039334 -0.000000 -0.000003 -0.000000 -0.000000 -18.007811 -0.000000 -5.697276 -0.267218 2.001776 7.691665 55.954174 -61.151104 -5.200062 -77.990631 -30.498383 14.188664 0.671225 -3.960533 5.677635 -0.269442 -2.021281 28.289328 50.170998 26.590521 25.214512 -81.816231 76.951775 -1.391400 -11.963449 -9.079983 37.671112 -55.515533 15.680236 -170.519623 82.737198 162.723083 -24.058783 -36.730534 -1.451429 -45.954277 -55.726879 -18.261944 176.705551 81.669891 -169.387756 27.890583 -28.055323 9.485515 
0.939682 31.411301 -7.897164 -0.000010 -0.000010 -0.000000 1.222712 41.341171 -0.495065 0.643486 -9.442779 -0.070097 -0.000000 -0.000003 -0.000000 -0.000000 -18.007811 -0.000000 -5.744444 -0.302156 2.322262 -1.168137 57.357441 -55.366318 1.892163 -78.473351 -20.127779 16.944206 0.318831 -4.864333 5.918143 -0.354350 -2.379826 29.180555 51.636909 26.884129 20.536098 -80.526070 60.503414 -1.055853 -10.810605 -8.828961 35.169071 -53.376366 13.641890 -149.349304 86.933113 141.848175 -22.907309 -35.047840 0.203285 -42.476967 -54.012756 -15.727871 169.855865 85.701439 -162.888397 26.631956 -26.909269 7.517305 
